# xmcd
#
# Track frame offsets: 
#        225
#        25812
#        42233
#        63121
#        79197
#        99928
#        120504
#        139122
#        156475
#        170020
#        189170
#        211466
#        229574
#
# Disc length: 3334 seconds
#
# Revision: 0
# Processed by: cddbd v1.5.2PL0 Copyright (c) Steve Scherf et al.
# Submitted via: ExactAudioCopyFreeDBPlugin 1.0
#
DISCID=a40d030d
DTITLE=Alice Stuart and The Formerlys - Freedom 
DYEAR=2007
DGENRE=Contemporary Blues 
TTITLE0=Freedom
TTITLE1=Highway Blues
TTITLE2=Rhythm Train
TTITLE3=Train of Love
TTITLE4=Basket Case
TTITLE5=I've Got Somethin' For You
TTITLE6=If You Want it to Last
TTITLE7=I Won't Bleed
TTITLE8=Harmony
TTITLE9=Down to Earth Man
TTITLE10=Sophia
TTITLE11=Everyone Knows
TTITLE12=It's All Over Now, Baby Blue
EXTD=
EXTT0=
EXTT1=
EXTT2=
EXTT3=
EXTT4=
EXTT5=
EXTT6=
EXTT7=
EXTT8=
EXTT9=
EXTT10=
EXTT11=
EXTT12=
PLAYORDER=
